ply
format ascii 1.0
comment VCGLIB generated
comment TextureFile dummy.png
element vertex 36
property float x
property float y
property float z
property float nx
property float ny
property float nz
property uchar red
property uchar green
property uchar blue
property uchar alpha
property float texture_u
property float texture_v
element face 50
property list uchar int vertex_indices
end_header
0.5 0 0 0 0 1 255 255 255 255 1.000000 0.000000
0.3 0 0 0 0 1 255 255 255 255 0.800000 0.000000
0.09999999 0 0 0 0 1 255 255 255 255 0.600000 0.000000
-0.1 0 0 0 0 1 255 255 255 255 0.400000 0.000000
-0.3 0 0 0 0 1 255 255 255 255 0.200000 0.000000
-0.5 0 0 0 0 1 255 255 255 255 0.000000 0.000000
0.5 0.2 0 0 0 1 255 255 255 255 1.000000 0.200000
0.3 0.2 0 0 0 1 255 255 255 255 0.800000 0.200000
0.09999999 0.2 0 0 0 1 255 255 255 255 0.600000 0.200000
-0.1 0.2 0 0 0 1 255 255 255 255 0.400000 0.200000
-0.3 0.2 0 0 0 1 255 255 255 255 0.200000 0.200000
-0.5 0.2 0 0 0 1 255 255 255 255 0.000000 0.200000
0.5 0.4 0 0 0 1 255 255 255 255 1.000000 0.400000
0.3 0.4 0 0 0 1 255 255 255 255 0.800000 0.400000
0.09999999 0.4 0 0 0 1 255 255 255 255 0.600000 0.400000
-0.1 0.4 0 0 0 1 255 255 255 255 0.400000 0.400000
-0.3 0.4 0 0 0 1 255 255 255 255 0.200000 0.400000
-0.5 0.4 0 0 0 1 255 255 255 255 0.000000 0.400000
0.5 0.6 0 0 0 1 255 255 255 255 1.000000 0.600000
0.3 0.6 0 0 0 1 255 255 255 255 0.800000 0.600000
0.09999999 0.6 0 0 0 1 255 255 255 255 0.600000 0.600000
-0.1 0.6 0 0 0 1 255 255 255 255 0.400000 0.600000
-0.3 0.6 0 0 0 1 255 255 255 255 0.200000 0.600000
-0.5 0.6 0 0 0 1 255 255 255 255 0.000000 0.600000
0.5 0.8 0 0 0 1 255 255 255 255 1.000000 0.800000
0.3 0.8 0 0 0 1 255 255 255 255 0.800000 0.800000
0.09999999 0.8 0 0 0 1 255 255 255 255 0.600000 0.800000
-0.1 0.8 0 0 0 1 255 255 255 255 0.400000 0.800000
-0.3 0.8 0 0 0 1 255 255 255 255 0.200000 0.800000
-0.5 0.8 0 0 0 1 255 255 255 255 0.000000 0.800000
0.5 1 0 0 0 1 255 255 255 255 1.000000 1.000000
0.3 1 0 0 0 1 255 255 255 255 0.800000 1.000000
0.09999999 1 0 0 0 1 255 255 255 255 0.600000 1.000000
-0.1 1 0 0 0 1 255 255 255 255 0.400000 1.000000
-0.3 1 0 0 0 1 255 255 255 255 0.200000 1.000000
-0.5 1 0 0 0 1 255 255 255 255 0.000000 1.000000
3 7 1 0 
3 0 6 7 
3 8 2 1 
3 1 7 8 
3 9 3 2 
3 2 8 9 
3 10 4 3 
3 3 9 10 
3 11 5 4 
3 4 10 11 
3 13 7 6 
3 6 12 13 
3 14 8 7 
3 7 13 14 
3 15 9 8 
3 8 14 15 
3 16 10 9 
3 9 15 16 
3 17 11 10 
3 10 16 17 
3 19 13 12 
3 12 18 19 
3 20 14 13 
3 13 19 20 
3 21 15 14 
3 14 20 21 
3 22 16 15 
3 15 21 22 
3 23 17 16 
3 16 22 23 
3 25 19 18 
3 18 24 25 
3 26 20 19 
3 19 25 26 
3 27 21 20 
3 20 26 27 
3 28 22 21 
3 21 27 28 
3 29 23 22 
3 22 28 29 
3 31 25 24 
3 24 30 31 
3 32 26 25 
3 25 31 32 
3 33 27 26 
3 26 32 33 
3 34 28 27 
3 27 33 34 
3 35 29 28 
3 28 34 35 
