ply
format ascii 1.0
comment Created by Blender 2.91.0 - www.blender.org
element vertex 54
property float x
property float y
property float z
property float nx
property float ny
property float nz
property uchar red
property uchar green
property uchar blue
property uchar alpha
element face 26
property list uchar uint vertex_indices
end_header
0.003003 1.000641 1.000000 0.000000 1.000000 -0.000000 150 150 150 255
0.503003 1.000641 1.000000 0.000000 1.000000 -0.000000 150 150 150 255
0.503003 1.000641 -1.000000 0.000000 1.000000 -0.000000 150 150 150 255
0.003003 1.000641 -1.000000 0.000000 1.000000 -0.000000 150 150 150 255
0.003003 0.000641 -1.000000 -0.000000 -0.000000 -1.000000 150 150 150 255
0.003003 1.000641 -1.000000 -0.000000 -0.000000 -1.000000 150 150 150 255
0.503003 1.000641 -1.000000 -0.000000 -0.000000 -1.000000 150 150 150 255
0.503003 0.000641 -1.000000 -0.000000 0.000000 -1.000000 150 150 150 255
0.503003 0.000641 -1.000000 1.000000 0.000000 -0.000000 150 150 150 255
0.503003 1.000641 -1.000000 1.000000 0.000000 -0.000000 150 150 150 255
0.503003 1.000641 1.000000 1.000000 0.000000 -0.000000 150 150 150 255
0.503003 0.000641 1.000000 1.000000 -0.000000 -0.000000 150 150 150 255
0.503003 0.000641 1.000000 0.000000 1.000000 -0.000000 150 150 150 255
0.003003 0.000641 -1.000000 0.000000 1.000000 -0.000000 150 150 150 255
0.003003 0.000641 1.000000 0.000000 1.000000 -0.000000 150 150 150 255
0.503003 0.000641 -1.000000 0.000000 1.000000 -0.000000 150 150 150 255
0.503003 0.000641 1.000000 -0.000000 0.000000 1.000000 150 150 150 255
0.503003 1.000641 1.000000 -0.000000 0.000000 1.000000 150 150 150 255
0.003003 1.000641 1.000000 -0.000000 0.000000 1.000000 150 150 150 255
0.003003 0.000641 1.000000 0.000000 0.000000 1.000000 150 150 150 255
-0.999224 0.000641 1.000000 0.000000 1.000000 -0.000000 150 150 150 255
-0.999224 0.000641 -1.000000 -0.000000 1.000000 -0.000000 150 150 150 255
0.003003 1.000641 1.000000 -0.706320 0.707893 0.000000 150 150 150 255
0.003003 1.000641 -1.000000 -0.706320 0.707893 0.000000 150 150 150 255
-0.999224 0.000641 -1.000000 -0.706320 0.707893 0.000000 150 150 150 255
-0.999224 0.000641 1.000000 -0.706320 0.707893 0.000000 150 150 150 255
-0.999224 0.000641 1.000000 0.000000 0.000000 1.000000 150 150 150 255
-0.999224 0.000641 -1.000000 -0.000000 0.000000 -1.000000 150 150 150 255
0.503003 -8.999358 1.000001 0.000000 -1.000000 0.000000 150 150 150 255
0.003003 -8.999358 1.000001 0.000000 -1.000000 0.000000 150 150 150 255
0.003003 -8.999359 -0.999999 0.000000 -1.000000 0.000000 150 150 150 255
0.503003 -8.999359 -0.999999 0.000000 -1.000000 0.000000 150 150 150 255
-0.999224 -8.999358 1.000001 0.000000 -1.000000 0.000000 150 150 150 255
-0.999224 -8.999359 -0.999999 0.000000 -1.000000 0.000000 150 150 150 255
0.003003 0.000641 1.000000 0.000000 0.000000 1.000000 150 150 150 255
-0.999224 0.000641 1.000000 0.000000 0.000000 1.000000 150 150 150 255
-0.999224 -8.999358 1.000001 0.000000 0.000000 1.000000 150 150 150 255
0.003003 -8.999358 1.000001 0.000000 0.000000 1.000000 150 150 150 255
-0.999224 0.000641 1.000000 -1.000000 0.000000 0.000000 150 150 150 255
-0.999224 0.000641 -1.000000 -1.000000 0.000000 0.000000 150 150 150 255
-0.999224 -8.999359 -0.999999 -1.000000 0.000000 0.000000 150 150 150 255
-0.999224 -8.999358 1.000001 -1.000000 0.000000 0.000000 150 150 150 255
0.503003 0.000641 -1.000000 1.000000 -0.000000 -0.000000 150 150 150 255
0.503003 0.000641 1.000000 1.000000 -0.000000 -0.000000 150 150 150 255
0.503003 -8.999358 1.000001 1.000000 -0.000000 -0.000000 150 150 150 255
0.503003 -8.999359 -0.999999 1.000000 -0.000000 -0.000000 150 150 150 255
0.503003 0.000641 1.000000 0.000000 0.000000 1.000000 150 150 150 255
0.503003 -8.999358 1.000001 0.000000 0.000000 1.000000 150 150 150 255
0.003003 0.000641 -1.000000 0.000000 -0.000000 -1.000000 150 150 150 255
0.503003 0.000641 -1.000000 0.000000 -0.000000 -1.000000 150 150 150 255
0.503003 -8.999359 -0.999999 0.000000 -0.000000 -1.000000 150 150 150 255
0.003003 -8.999359 -0.999999 0.000000 -0.000000 -1.000000 150 150 150 255
-0.999224 0.000641 -1.000000 -0.000000 -0.000000 -1.000000 150 150 150 255
-0.999224 -8.999359 -0.999999 -0.000000 -0.000000 -1.000000 150 150 150 255
3 0 1 2
3 0 2 3
3 4 5 6
3 4 6 7
3 8 9 10
3 8 10 11
3 12 13 14
3 12 15 13
3 16 17 18
3 16 18 19
3 13 20 14
3 13 21 20
3 22 23 24
3 22 24 25
3 19 18 26
3 4 27 5
3 28 29 30
3 28 30 31
3 30 29 32
3 30 32 33
4 34 35 36 37
4 38 39 40 41
4 42 43 44 45
4 46 34 37 47
4 48 49 50 51
4 52 48 51 53
