ply
format ascii 1.0
comment VCGLIB generated
element vertex 54
property float x
property float y
property float z
property float nx
property float ny
property float nz
property uchar red
property uchar green
property uchar blue
property uchar alpha
property float texture_u
property float texture_v
element face 28
property list uchar int vertex_indices
end_header
-0.4999999 1.000641 0.003003409 1.311342e-07 1 -2.866028e-14 150 150 150 255 0.713235 0.999172
-0.4999999 1.000641 0.5030031 1.311342e-07 1 -2.866028e-14 150 150 150 255 0.713235 0.856567
0.5000001 1.000641 0.5030029 1.311342e-07 1 -2.866028e-14 150 150 150 255 0.998447 0.856567
0.5 1.000641 0.003003189 1.311342e-07 1 -2.866028e-14 150 150 150 255 0.998447 0.999172
0.5 0.0006412209 0.003003189 1 -1.311342e-07 -2.18557e-07 150 150 150 255 0.144996 -0.000650
0.5 1.000641 0.003003189 1 -1.311342e-07 -2.18557e-07 150 150 150 255 0.144996 0.284562
0.5000001 1.000641 0.5030029 1 -1.311342e-07 -2.18557e-07 150 150 150 255 0.002390 0.284562
0.5000001 0.0006412209 0.5030029 1 -1.311342e-07 -2.18557e-07 150 150 150 255 0.002390 -0.000650
0.5000001 0.0006412209 0.5030029 2.18557e-07 0 1 150 150 150 255 0.554855 -0.422281
0.5000001 1.000641 0.5030029 2.18557e-07 0 1 150 150 150 255 0.554855 -0.137069
-0.4999999 1.000641 0.5030031 2.18557e-07 0 1 150 150 150 255 0.269643 -0.137069
-0.4999999 0.0006413519 0.5030031 2.18557e-07 0 1 150 150 150 255 0.269643 -0.422281
-0.4999999 0.0006413519 0.5030031 -1.311342e-07 -1 2.866028e-14 150 150 150 255 0.671163 -0.250812
-0.5 0.0006413519 0.003003409 -1.311342e-07 -1 2.866028e-14 150 150 150 255 0.671162 -0.108207
0.5 0.0006412209 0.003003189 -1.311342e-07 -1 2.866028e-14 150 150 150 255 0.385951 -0.108207
0.5000001 0.0006412209 0.5030029 -1.311342e-07 -1 2.866028e-14 150 150 150 255 0.385951 -0.250812
-0.4999999 0.0006413519 0.5030031 -1 1.311342e-07 2.18557e-07 150 150 150 255 1.000772 0.002648
-0.4999999 1.000641 0.5030031 -1 1.311342e-07 2.18557e-07 150 150 150 255 1.000772 0.287860
-0.4999999 1.000641 0.003003409 -1 1.311342e-07 2.18557e-07 150 150 150 255 0.858166 0.287860
-0.5 0.0006413519 0.003003409 -1 1.311342e-07 2.18557e-07 150 150 150 255 0.858166 0.002648
0.5 0.0006412209 0.003003189 -1.311342e-07 -1 2.866028e-14 150 150 150 255 0.165711 -0.425648
-0.5 0.0006413519 0.003003409 -1.311342e-07 -1 2.866028e-14 150 150 150 255 0.450922 -0.425648
-0.5000002 0.0006413519 -0.9992244 -1.311342e-07 -1 2.866028e-14 150 150 150 255 0.450922 -0.139801
0.4999998 0.0006412209 -0.9992245 -1.311342e-07 -1 2.866028e-14 150 150 150 255 0.165711 -0.139801
-0.4999999 1.000641 0.003003409 -6.154205e-08 0.7078933 -0.7063195 150 150 150 255 0.713235 0.452392
0.5 1.000641 0.003003189 -6.154205e-08 0.7078933 -0.7063195 150 150 150 255 0.998447 0.452392
0.4999998 0.0006412209 -0.9992245 -6.154205e-08 0.7078933 -0.7063195 150 150 150 255 0.998447 0.856192
-0.5000002 0.0006413519 -0.9992244 -6.154205e-08 0.7078933 -0.7063195 150 150 150 255 0.713235 0.856192
-0.5000002 0.0006413519 -0.9992244 -1 1.311342e-07 2.18557e-07 150 150 150 255 0.572320 0.002648
0.4999998 0.0006412209 -0.9992245 1 -1.311342e-07 -2.18557e-07 150 150 150 255 0.430843 -0.000649
0.4999993 -5.203575 0.4999999 2.18557e-07 0 1 150 150 150 255 0.295025 -0.409720
0.5000001 0.001300805 0.4999999 2.18557e-07 0 1 150 150 150 255 0.545025 -0.409720
-0.4999999 0.001300937 0.4999999 2.18557e-07 0 1 150 150 150 255 0.545025 -0.159720
-0.5000004 -5.203575 0.4999999 2.18557e-07 0 1 150 150 150 255 0.295025 -0.159720
-0.5000004 -5.203575 0.4999999 -1 1.311342e-07 2.18557e-07 150 150 150 255 0.252610 0.282271
-0.4999999 0.001300937 0.4999999 -1 1.311342e-07 2.18557e-07 150 150 150 255 0.502610 0.282271
-0.5000002 0.001300937 -0.9918709 -1 1.311342e-07 2.18557e-07 150 150 150 255 0.502610 0.999665
-0.5000005 -5.203575 -0.9918709 -1 1.311342e-07 2.18557e-07 150 150 150 255 0.252610 0.999665
-0.5000005 -5.203575 -0.9918709 -2.18557e-07 0 -1 150 150 150 255 0.370078 -0.425254
-0.5000002 0.001300937 -0.9918709 -2.18557e-07 0 -1 150 150 150 255 0.620078 -0.425254
0.4999998 0.001300805 -0.9918711 -2.18557e-07 0 -1 150 150 150 255 0.620078 -0.175254
0.4999992 -5.203575 -0.9918711 -2.18557e-07 0 -1 150 150 150 255 0.370078 -0.175254
0.4999992 -5.203575 -0.9918711 1 -1.311342e-07 -2.18557e-07 150 150 150 255 0.002191 0.286181
0.4999998 0.001300805 -0.9918711 1 -1.311342e-07 -2.18557e-07 150 150 150 255 0.252191 0.286181
0.5000001 0.001300805 0.4999999 1 -1.311342e-07 -2.18557e-07 150 150 150 255 0.252191 0.998731
0.4999993 -5.203575 0.4999999 1 -1.311342e-07 -2.18557e-07 150 150 150 255 0.002191 0.998731
-0.5000004 -5.203575 0.4999999 -1.311342e-07 -1 2.866028e-14 150 150 150 255 0.644225 -0.433867
-0.5000005 -5.203575 -0.9918709 -1.311342e-07 -1 2.866028e-14 150 150 150 255 0.894225 -0.433867
0.4999992 -5.203575 -0.9918711 -1.311342e-07 -1 2.866028e-14 150 150 150 255 0.894225 -0.183867
0.4999993 -5.203575 0.4999999 -1.311342e-07 -1 2.866028e-14 150 150 150 255 0.644225 -0.183867
-0.5000002 0.001300937 -0.9918709 1.311342e-07 1 -2.866028e-14 150 150 150 255 -0.068941 -0.378500
-0.4999999 0.001300937 0.4999999 1.311342e-07 1 -2.866028e-14 150 150 150 255 0.181059 -0.378500
0.5000001 0.001300805 0.4999999 1.311342e-07 1 -2.866028e-14 150 150 150 255 0.181059 -0.128500
0.4999998 0.001300805 -0.9918711 1.311342e-07 1 -2.866028e-14 150 150 150 255 -0.068941 -0.128500
3 0 1 2 
3 0 2 3 
3 4 5 6 
3 4 6 7 
3 8 9 10 
3 8 10 11 
3 12 13 14 
3 12 14 15 
3 16 17 18 
3 16 18 19 
3 20 21 22 
3 20 22 23 
3 24 25 26 
3 24 26 27 
3 19 18 28 
3 4 29 5 
3 30 31 32 
3 30 32 33 
3 34 35 36 
3 34 36 37 
3 38 39 40 
3 38 40 41 
3 42 43 44 
3 42 44 45 
3 46 47 48 
3 46 48 49 
3 50 51 52 
3 50 52 53 
