ply
format ascii 1.0
comment VCGLIB generated
element vertex 6
property float x
property float y
property float z
property float nx
property float ny
property float nz
property uchar red
property uchar green
property uchar blue
property uchar alpha
property float texture_u
property float texture_v
element face 4
property list uchar int vertex_indices
end_header
-2.185569e-08 2.980232e-08 -0.5 0.9999838 2.485107e-10 -0.005685306 150 150 150 255 1.000000 0.000000
-2.185569e-08 0.9999999 -0.5 0.9999838 2.485107e-10 -0.005685306 150 150 150 255 1.000000 1.000000
-0.5 0 3.552714e-15 4.371139e-08 -4.371138e-08 1 150 150 150 255 0.000000 0.000000
-0.5 0.9999999 4.371138e-08 4.371139e-08 -4.371138e-08 1 150 150 150 255 0.000000 1.000000
9.553426e-16 0.9999999 2.185569e-08 0.4482269 -3.907448e-08 0.8939199 150 150 150 255 0.500000 1.000000
-9.553426e-16 0 -2.185569e-08 0.8964537 -1.937015e-08 0.4431374 150 150 150 255 0.500000 0.000000
3 4 2 5 
3 5 0 1 
3 4 3 2 
3 5 1 4 
